<?xml version="1.0" encoding="UTF-8" standalone="no"?>
<!-- Created with Inkscape (http://www.inkscape.org/) -->

<svg
   width="94.75663"
   height="94.067543"
   viewBox="0 0 25.071025 24.888704"
   version="1.1"
   id="svg5"
   inkscape:version="1.1 (ce6663b3b7, 2021-05-25)"
   xmlns:inkscape="http://www.inkscape.org/namespaces/inkscape"
   xmlns:sodipodi="http://sodipodi.sourceforge.net/DTD/sodipodi-0.dtd"
   xmlns="http://www.w3.org/2000/svg"
   xmlns:svg="http://www.w3.org/2000/svg">
  <sodipodi:namedview
     id="namedview7"
     pagecolor="#505050"
     bordercolor="#eeeeee"
     borderopacity="1"
     inkscape:pageshadow="0"
     inkscape:pageopacity="0"
     inkscape:pagecheckerboard="0"
     inkscape:document-units="px"
     showgrid="false"
     inkscape:snap-bbox="true"
     inkscape:object-paths="true"
     inkscape:snap-smooth-nodes="true"
     inkscape:snap-intersection-paths="true"
     inkscape:snap-midpoints="false"
     inkscape:snap-object-midpoints="true"
     inkscape:object-nodes="true"
     showguides="true"
     inkscape:guide-bbox="true"
     inkscape:zoom="2.8284271"
     inkscape:cx="-16.263456"
     inkscape:cy="49.497475"
     inkscape:window-width="1853"
     inkscape:window-height="1025"
     inkscape:window-x="67"
     inkscape:window-y="27"
     inkscape:window-maximized="1"
     inkscape:current-layer="g3010"
     fit-margin-top="0"
     fit-margin-left="0"
     fit-margin-right="0"
     fit-margin-bottom="0">
    <sodipodi:guide
       position="12.458212,18.062212"
       orientation="1,0"
       id="guide13530" />
    <sodipodi:guide
       position="2.296092,12.538122"
       orientation="0,-1"
       id="guide13532" />
    <sodipodi:guide
       position="14.176222,18.057242"
       orientation="0,-1"
       id="guide13534" />
  </sodipodi:namedview>
  <defs
     id="defs2" />
  <g
     inkscape:label="Layer 1"
     inkscape:groupmode="layer"
     id="layer1"
     transform="translate(-105.70084,-21.886648)">
    <g
       id="g2874">
      <path
         id="path31"
         style="fill:none;fill-rule:evenodd;stroke:#000000;stroke-width:2.24896"
         d="m 32.491202,18.291725 c 0,1.981267 -0.803067,3.774968 -2.101451,5.073352 -1.298384,1.298384 -3.092085,2.101451 -5.073352,2.101451 -3.962535,0 -7.174804,-3.212268 -7.174804,-7.174803 0,-3.962535 3.212269,-7.174803 7.174804,-7.174803 3.962534,0 7.174803,3.212269 7.174803,7.174803 z"
         sodipodi:nodetypes="ssssss" />
      <path
         style="fill:none;stroke:#000000;stroke-width:2.24896;stroke-linecap:butt;stroke-linejoin:miter;stroke-miterlimit:4;stroke-dasharray:none;stroke-opacity:1"
         d="m 25.316399,25.466528 h 7.570676"
         id="path1914"
         sodipodi:nodetypes="cc" />
      <path
         id="path2994"
         style="fill:none;fill-rule:evenodd;stroke:#000000;stroke-width:2.24896"
         d="m 32.491202,18.291725 c 0,1.981267 -0.803067,3.774968 -2.101451,5.073352 -1.298384,1.298384 -3.092085,2.101451 -5.073352,2.101451 -3.962535,0 -7.174804,-3.212268 -7.174804,-7.174803 0,-3.962535 3.212269,-7.174803 7.174804,-7.174803 3.962534,0 7.174803,3.212269 7.174803,7.174803 z"
         sodipodi:nodetypes="ssssss" />
    </g>
    <g
       id="g3002"
       transform="translate(24.717015)" />
    <g
       id="g3010"
       transform="translate(24.436385)">
      <path
         id="path3004"
         style="fill:none;fill-rule:evenodd;stroke:#000000;stroke-width:2.24896"
         d="m 32.491202,18.291725 c 0,1.981267 -0.803067,3.774968 -2.101451,5.073352 -1.298384,1.298384 -3.092085,2.101451 -5.073352,2.101451 -3.962535,0 -7.174804,-3.212268 -7.174804,-7.174803 0,-3.962535 3.212269,-7.174803 7.174804,-7.174803 3.962534,0 7.174803,3.212269 7.174803,7.174803 z"
         sodipodi:nodetypes="ssssss" />
      <path
         style="fill:none;stroke:#ffffff;stroke-width:2.24896;stroke-linecap:butt;stroke-linejoin:miter;stroke-miterlimit:4;stroke-dasharray:none;stroke-opacity:1"
         d="m 25.316399,25.466528 h 7.570676"
         id="path3006"
         sodipodi:nodetypes="cc" />
      <path
         id="path3008"
         style="fill:none;fill-rule:evenodd;stroke:#ffffff;stroke-width:2.24896;stroke-opacity:1"
         d="m 32.491202,18.291725 c 0,1.981267 -0.803067,3.774968 -2.101451,5.073352 -1.298384,1.298384 -3.092085,2.101451 -5.073352,2.101451 -3.962535,0 -7.174804,-3.212268 -7.174804,-7.174803 0,-3.962535 3.212269,-7.174803 7.174804,-7.174803 3.962534,0 7.174803,3.212269 7.174803,7.174803 z"
         sodipodi:nodetypes="ssssss" />
      <path
         style="fill:none;stroke:#000000;stroke-width:2.11667;stroke-linecap:butt;stroke-linejoin:miter;stroke-miterlimit:4;stroke-dasharray:none;stroke-opacity:1"
         d="m 105.25556,45.713017 c 0,0 -11.276218,0.004 -11.408417,0.004 7.187477,-0.0035 11.513927,-6.351118 11.428727,-11.390539 -0.0852,-5.039421 -4.03872,-11.389303 -11.552082,-11.381488 -7.513364,0.0078 -11.380645,6.10285 -11.400921,11.359879 -0.02028,5.25703 3.924333,11.344192 11.524276,11.412148"
         id="path5073"
         sodipodi:nodetypes="cczzzc" />
    </g>
  </g>
</svg>
